<?xml version="1.0" encoding="UTF-8"?>
<svg xmlns="http://www.w3.org/2000/svg" xmlns:xlink="http://www.w3.org/1999/xlink" width="24pt" height="24pt" viewBox="0 0 24 24" version="1.1">
<g id="surface1">
<path style=" stroke:none;fill-rule:nonzero;fill:rgb(0%,0%,0%);fill-opacity:1;" d="M 23.390625 8.132812 C 22.6875 6.6875 21.476562 5.878906 20.304688 5.09375 C 19.433594 4.511719 18.609375 3.957031 18.027344 3.167969 L 17.921875 3.023438 C 17.578125 2.5625 17.1875 2.039062 17.125 1.601562 C 17.121094 1.5625 17.101562 1.535156 17.089844 1.5 C 17.074219 1.4375 17.058594 1.382812 17.03125 1.328125 C 17.011719 1.28125 16.980469 1.242188 16.949219 1.203125 C 16.914062 1.15625 16.878906 1.113281 16.835938 1.074219 C 16.792969 1.035156 16.746094 1.011719 16.699219 0.980469 C 16.652344 0.957031 16.613281 0.933594 16.5625 0.914062 C 16.503906 0.890625 16.441406 0.882812 16.375 0.875 C 16.34375 0.875 16.316406 0.859375 16.28125 0.859375 C 16.261719 0.859375 16.246094 0.871094 16.226562 0.871094 C 16.203125 0.875 16.1875 0.863281 16.164062 0.867188 C 16.128906 0.875 16.097656 0.894531 16.0625 0.90625 C 16.003906 0.917969 15.949219 0.933594 15.898438 0.960938 C 15.851562 0.988281 15.808594 1.015625 15.769531 1.050781 C 15.722656 1.085938 15.679688 1.121094 15.644531 1.164062 C 15.609375 1.203125 15.582031 1.25 15.554688 1.296875 C 15.527344 1.34375 15.503906 1.390625 15.484375 1.441406 C 15.464844 1.496094 15.457031 1.550781 15.449219 1.609375 C 15.441406 1.644531 15.425781 1.675781 15.425781 1.714844 L 15.425781 16.988281 C 14.707031 16.550781 13.824219 16.285156 12.855469 16.285156 C 10.492188 16.285156 8.570312 17.820312 8.570312 19.710938 C 8.570312 21.601562 10.492188 23.140625 12.855469 23.140625 C 15.21875 23.140625 17.140625 21.601562 17.140625 19.710938 L 17.140625 9.722656 C 18.425781 10.214844 20.53125 11.46875 21.113281 14.394531 C 21.003906 14.554688 20.902344 14.726562 20.78125 14.863281 C 20.46875 15.21875 20.503906 15.757812 20.859375 16.070312 C 21.019531 16.214844 21.222656 16.285156 21.421875 16.285156 C 21.660156 16.285156 21.898438 16.183594 22.066406 15.992188 C 22.292969 15.734375 22.5 15.429688 22.695312 15.113281 C 22.714844 15.085938 22.734375 15.058594 22.75 15.03125 C 23.445312 13.871094 23.902344 12.40625 23.992188 10.957031 C 24.046875 10.027344 23.839844 9.050781 23.390625 8.132812 Z M 12.855469 21.425781 C 11.460938 21.425781 10.285156 20.640625 10.285156 19.710938 C 10.285156 18.785156 11.460938 18 12.855469 18 C 14.246094 18 15.425781 18.785156 15.425781 19.710938 C 15.425781 20.640625 14.246094 21.425781 12.855469 21.425781 Z M 22.28125 10.851562 C 22.257812 11.25 22.195312 11.652344 22.109375 12.042969 C 20.902344 9.625 18.71875 8.367188 17.140625 7.902344 L 17.140625 4.753906 C 17.8125 5.46875 18.589844 6.003906 19.355469 6.515625 C 20.382812 7.203125 21.351562 7.851562 21.855469 8.882812 C 22.167969 9.523438 22.320312 10.226562 22.28125 10.851562 Z M 22.28125 10.851562 "/>
<path style=" stroke:none;fill-rule:nonzero;fill:rgb(0%,0%,0%);fill-opacity:1;" d="M 11.140625 0.859375 L 0.855469 0.859375 C 0.382812 0.859375 0 1.242188 0 1.714844 C 0 2.191406 0.382812 2.574219 0.855469 2.574219 L 11.140625 2.574219 C 11.613281 2.574219 11.996094 2.191406 11.996094 1.714844 C 11.996094 1.242188 11.613281 0.859375 11.140625 0.859375 Z M 11.140625 0.859375 "/>
<path style=" stroke:none;fill-rule:nonzero;fill:rgb(0%,0%,0%);fill-opacity:1;" d="M 11.140625 6 L 0.855469 6 C 0.382812 6 0 6.386719 0 6.859375 C 0 7.332031 0.382812 7.714844 0.855469 7.714844 L 11.140625 7.714844 C 11.613281 7.714844 11.996094 7.332031 11.996094 6.859375 C 11.996094 6.386719 11.613281 6 11.140625 6 Z M 11.140625 6 "/>
<path style=" stroke:none;fill-rule:nonzero;fill:rgb(0%,0%,0%);fill-opacity:1;" d="M 6 11.144531 L 0.855469 11.144531 C 0.382812 11.144531 0 11.527344 0 12 C 0 12.472656 0.382812 12.855469 0.855469 12.855469 L 6 12.855469 C 6.472656 12.855469 6.855469 12.472656 6.855469 12 C 6.855469 11.527344 6.472656 11.144531 6 11.144531 Z M 6 11.144531 "/>
<path style=" stroke:none;fill-rule:nonzero;fill:rgb(0%,0%,0%);fill-opacity:1;" d="M 6 16.285156 L 0.855469 16.285156 C 0.382812 16.285156 0 16.667969 0 17.140625 C 0 17.613281 0.382812 18 0.855469 18 L 6 18 C 6.472656 18 6.855469 17.613281 6.855469 17.140625 C 6.855469 16.667969 6.472656 16.285156 6 16.285156 Z M 6 16.285156 "/>
</g>
</svg>
