<?xml version="1.0" standalone="no"?>
<!DOCTYPE svg PUBLIC "-//W3C//DTD SVG 20010904//EN"
 "http://www.w3.org/TR/2001/REC-SVG-20010904/DTD/svg10.dtd">
<svg version="1.0" xmlns="http://www.w3.org/2000/svg"
 width="700.000000pt" height="700.000000pt" viewBox="0 0 700.000000 700.000000"
 preserveAspectRatio="xMidYMid meet">
<metadata>
Created by potrace 1.11, written by Peter Selinger 2001-2013
</metadata>
<g transform="translate(0.000000,700.000000) scale(0.100000,-0.100000)"
fill="#000000" stroke="none">
<path d="M175 6738 c-97 -34 -167 -125 -171 -221 -5 -106 55 -205 149 -247 40
-18 105 -18 1588 -19 1721 -1 1600 -6 1677 68 55 53 76 104 76 181 0 99 -50
181 -140 226 -38 18 -83 19 -1594 21 -1076 1 -1564 -2 -1585 -9z"/>
<path d="M4671 6733 c-26 -9 -65 -36 -91 -62 -87 -88 -80 141 -80 -2379 0
-1230 -2 -2237 -3 -2239 -2 -2 -46 19 -98 45 -108 55 -220 93 -364 124 -150
32 -494 31 -582 -3 -13 -5 -23 -7 -23 -4 0 2 -37 -7 -82 -19 -339 -94 -605
-292 -747 -557 -72 -133 -101 -257 -97 -409 3 -109 5 -122 37 -230 87 -289
370 -550 726 -670 171 -57 319 -79 513 -74 80 1 161 5 180 9 33 5 109 20 155
29 11 3 62 18 112 35 402 132 697 437 757 781 12 72 14 304 14 1563 0 813 2
1481 5 1483 10 10 254 -109 354 -173 218 -138 413 -332 548 -543 86 -133 202
-401 221 -510 3 -14 11 -49 19 -78 l13 -52 -69 -97 c-77 -108 -93 -152 -86
-230 19 -195 260 -290 408 -161 32 28 130 158 195 258 166 257 326 689 360
972 4 29 8 55 10 59 16 29 24 371 11 484 -36 305 -184 642 -383 872 -152 176
-289 289 -649 535 -496 338 -608 443 -832 773 -70 104 -101 169 -133 277 -26
90 -68 146 -133 177 -57 27 -131 33 -186 14z m549 -1323 c106 -89 196 -154
430 -314 275 -187 388 -274 495 -381 146 -145 233 -286 294 -473 30 -91 33
-106 52 -232 13 -87 6 -251 -16 -375 -4 -22 -8 -50 -10 -62 -2 -12 -6 -36 -10
-54 l-7 -33 -20 39 c-119 236 -336 508 -547 685 -30 25 -59 50 -65 55 -68 63
-319 222 -446 282 -79 38 -103 49 -192 87 -18 8 -66 24 -105 37 -72 23 -73 23
-74 58 0 38 0 780 1 845 l0 38 73 -70 c39 -38 106 -98 147 -132z m-1315 -3672
c212 -29 420 -140 518 -276 204 -283 -39 -618 -508 -699 -54 -9 -268 -9 -332
0 -163 24 -345 109 -449 212 -98 97 -128 161 -128 275 -1 73 3 93 27 142 123
250 496 399 872 346z"/>
<path d="M175 5237 c-116 -45 -183 -145 -171 -257 8 -69 28 -112 74 -158 78
-78 -50 -72 1681 -71 1474 1 1548 1 1587 19 48 21 103 73 123 116 7 16 17 36
21 45 7 13 7 130 0 137 -1 1 -3 6 -4 10 0 5 -14 30 -30 55 -33 52 -83 90 -142
106 -57 16 -3097 14 -3139 -2z"/>
<path d="M173 3736 c-174 -55 -227 -280 -97 -410 80 -80 41 -77 950 -74 l799
3 50 32 c28 18 65 55 85 84 31 46 35 57 35 123 0 107 -43 180 -135 228 l-45
23 -800 2 c-641 2 -808 -1 -842 -11z"/>
<path d="M173 2237 c-175 -65 -227 -281 -99 -410 82 -81 42 -78 952 -75 l799
3 52 33 c83 53 122 129 118 227 -3 94 -57 170 -148 213 -46 22 -47 22 -844 21
-587 0 -806 -4 -830 -12z"/>
</g>
</svg>
